# xmcd
#
# Track frame offsets: 
#        150
#        20479
#        36631
#        55004
#        72249
#        86365
#        106907
#
# Disc length: 1774 seconds
#
# Revision: 0
# Processed by: cddbd v1.5.1PL0 Copyright (c) Steve Scherf et al.
# Submitted via: ExactAudioCopy v0.95b1
#
DISCID=5506ec07
DTITLE=Palm And Sago - Palm And Sago
DYEAR=2004
DGENRE=Blues
TTITLE0=Love Yourself
TTITLE1=Five Star
TTITLE2=In Beauty I Walk
TTITLE3=Evidence
TTITLE4=Threads
TTITLE5=Vision
TTITLE6=The Same
EXTD=
EXTT0=
EXTT1=
EXTT2=
EXTT3=
EXTT4=
EXTT5=
EXTT6=
PLAYORDER=
